<svg xmlns="http://www.w3.org/2000/svg" viewBox="0 0 128 128" role="img" aria-labelledby="title desc">
  <title id="title">Dose and Drip Calculator logo</title>
  <desc id="desc">A rounded square with a medical droplet and dose cross.</desc>
  <defs>
    <linearGradient id="bg" x1="16" y1="10" x2="112" y2="118" gradientUnits="userSpaceOnUse">
      <stop offset="0" stop-color="#1f7662"/>
      <stop offset="1" stop-color="#0f4c81"/>
    </linearGradient>
    <linearGradient id="glow" x1="24" y1="18" x2="92" y2="86" gradientUnits="userSpaceOnUse">
      <stop offset="0" stop-color="#ffffff" stop-opacity="0.32"/>
      <stop offset="1" stop-color="#ffffff" stop-opacity="0"/>
    </linearGradient>
  </defs>
  <rect x="8" y="8" width="112" height="112" rx="28" fill="url(#bg)"/>
  <rect x="16" y="16" width="96" height="96" rx="22" fill="url(#glow)"/>
  <path d="M40 22c4 4 7 9 8 15" fill="none" stroke="#dbeafe" stroke-linecap="round" stroke-width="5" stroke-opacity="0.76"/>
  <path d="M44 18c3 2 6 5 8 10" fill="none" stroke="#dbeafe" stroke-linecap="round" stroke-width="4" stroke-opacity="0.52"/>
  <circle cx="98" cy="30" r="10" fill="#f59e0b"/>
  <path d="M98 23v14M91 30h14" fill="none" stroke="#0f172a" stroke-linecap="round" stroke-width="4"/>
  <path d="M64 28C50 43 40 56 40 70c0 15.46 10.75 28 24 28s24-12.54 24-28c0-14-10-27-24-42Z" fill="#f8fafc"/>
  <path d="M64 46v28M50 60h28" fill="none" stroke="#0f4c81" stroke-linecap="round" stroke-width="7"/>
  <rect x="18" y="18" width="92" height="92" rx="22" fill="none" stroke="#ffffff" stroke-opacity="0.18" stroke-width="2"/>
</svg>
